<?xml version="1.0" standalone="no"?>
<!DOCTYPE svg PUBLIC "-//W3C//DTD SVG 20010904//EN"
 "http://www.w3.org/TR/2001/REC-SVG-20010904/DTD/svg10.dtd">
<svg version="1.0" xmlns="http://www.w3.org/2000/svg"
 width="629.000000pt" height="471.000000pt" viewBox="0 0 629.000000 471.000000"
 preserveAspectRatio="xMidYMid meet">

<g transform="translate(0.000000,471.000000) scale(0.100000,-0.100000)"
fill="#000000" stroke="none">
<path d="M1979 3861 c-19 -20 -29 -40 -29 -60 0 -27 -6 -34 -52 -57 -167 -84
-327 -253 -428 -454 -36 -71 -109 -268 -131 -355 -82 -320 -183 -978 -209
-1366 -23 -337 14 -443 172 -499 165 -58 473 -53 642 10 173 65 324 225 450
478 l46 92 -25 39 c-194 292 16 690 366 692 265 3 470 -208 457 -466 l-3 -75
221 0 222 0 4 108 c3 95 7 114 35 175 106 224 376 322 601 217 174 -81 285
-287 252 -471 -11 -60 -48 -153 -86 -210 -16 -24 -15 -28 26 -110 122 -243
275 -405 446 -469 169 -63 477 -68 642 -10 115 41 154 96 174 246 13 103 5
220 -47 654 -20 162 -45 381 -56 485 -11 105 -33 256 -49 336 -99 494 -315
832 -615 964 -43 19 -53 29 -58 55 -4 17 -18 42 -31 55 -24 24 -29 25 -174 25
-135 0 -152 -2 -175 -20 -14 -11 -29 -29 -32 -40 -5 -15 -19 -20 -73 -25 -171
-18 -300 -56 -344 -103 -15 -15 -39 -61 -55 -101 -46 -123 -1 -115 -620 -115
-605 0 -545 -12 -583 114 -16 55 -31 83 -56 106 -52 50 -176 84 -357 100 -72
6 -79 9 -93 35 -8 16 -23 33 -33 39 -11 5 -85 10 -166 10 l-147 0 -29 -29z
m346 -542 c315 -117 436 -477 255 -759 -86 -134 -263 -230 -425 -230 -181 0
-373 119 -452 280 -41 83 -52 136 -53 236 0 196 107 365 286 451 38 18 90 38
115 43 71 15 206 5 274 -21z m2278 -70 c79 -22 147 -111 147 -194 0 -121 -126
-222 -243 -195 -157 35 -215 222 -103 334 59 59 122 77 199 55z m500 0 c21 -5
54 -24 74 -42 188 -165 -28 -449 -241 -317 -109 67 -116 247 -14 323 60 44
113 55 181 36z m-1553 -161 c77 -39 80 -51 73 -342 -2 -138 -9 -266 -15 -284
-15 -51 -86 -92 -157 -92 -69 0 -118 23 -149 70 l-23 35 6 265 c8 298 10 308
81 347 52 30 125 30 184 1z m1096 -341 c139 -72 134 -280 -8 -351 -90 -45
-183 -26 -245 49 -142 171 55 406 253 302z m492 4 c103 -53 139 -163 87 -267
-95 -191 -375 -126 -375 87 0 117 80 199 192 199 38 0 72 -7 96 -19z"/>
<path d="M2035 3247 c-72 -24 -128 -58 -180 -111 -205 -205 -143 -549 123
-678 63 -31 73 -33 177 -33 99 0 116 3 169 28 199 93 299 306 237 506 -39 125
-112 209 -229 264 -58 27 -80 32 -162 34 -59 2 -110 -2 -135 -10z m235 -217
l0 -90 85 0 85 0 0 -100 0 -99 -87 -3 -88 -3 -3 -87 -3 -88 -104 0 -105 0 0
90 0 90 -90 0 -90 0 0 100 0 99 88 3 87 3 3 88 3 87 109 0 110 0 0 -90z"/>
<path d="M4479 3167 c-76 -50 -87 -141 -25 -203 45 -45 92 -52 150 -25 100 49
102 188 3 234 -48 23 -88 21 -128 -6z"/>
<path d="M4985 3172 c-59 -36 -82 -90 -65 -153 22 -79 107 -117 182 -80 51 24
78 65 78 118 0 99 -112 165 -195 115z"/>
<path d="M3394 2877 c-2 -7 -3 -74 -2 -148 l3 -134 54 -3 c37 -2 57 1 62 10
10 15 12 248 3 272 -8 21 -112 23 -120 3z"/>
<path d="M4506 2700 c-16 -5 -39 -19 -52 -31 -85 -80 -25 -229 92 -229 148 0
184 198 47 256 -36 16 -46 16 -87 4z"/>
<path d="M5003 2699 c-37 -11 -78 -60 -87 -105 -16 -72 53 -154 127 -154 150
0 188 197 50 256 -36 16 -45 16 -90 3z"/>
<path d="M2693 2331 c-107 -28 -214 -113 -263 -211 -105 -207 -23 -448 187
-552 64 -31 74 -33 173 -33 97 0 110 2 173 32 122 58 202 165 228 305 31 170
-65 351 -228 429 -56 26 -81 32 -152 35 -47 2 -100 -1 -118 -5z m216 -162 c73
-37 114 -86 138 -168 19 -67 8 -138 -32 -207 -96 -164 -353 -165 -449 -1 -82
139 -37 301 103 375 86 44 153 44 240 1z"/>
<path d="M4005 2323 c-121 -44 -196 -110 -249 -222 -28 -60 -31 -75 -31 -166
0 -91 3 -106 31 -165 54 -113 128 -181 242 -219 262 -89 532 106 532 384 0
162 -88 298 -239 368 -84 40 -207 48 -286 20z m220 -130 c166 -56 230 -283
122 -425 -50 -66 -113 -100 -195 -106 -96 -6 -161 16 -222 77 -144 144 -89
383 105 458 44 17 134 15 190 -4z"/>
</g>
</svg>
